<mxfile host="app.diagrams.net" modified="2024-02-21T23:00:32.087Z" agent="Mozilla/5.0 (X11; Linux x86_64; rv:123.0) Gecko/20100101 Firefox/123.0" version="23.1.5" etag="kr6Ritn1hhuQb0HF1r-G" type="github">
  <diagram name="PÃ¡gina-1" id="5v-DLnogel-hfE7-GgS7">
    <mxGraphModel>
      <root>
        <mxCell id="0" />
        <mxCell id="1" parent="0" />
      </root>
    </mxGraphModel>
  </diagram>
</mxfile>
